HIERARCHY
ROOT Hips
{
	OFFSET	0.00	0.00	0.00
	CHANNELS 6 Xposition Yposition Zposition Zrotation Xrotation Yrotation
	JOINT LeftUpLeg
	{
		OFFSET	 0.126116	-0.014019	-0.065224
		CHANNELS 3 Zrotation Xrotation Yrotation
		JOINT LeftLeg
		{
			OFFSET	 0.000000	 0.000000	 0.569914
			CHANNELS 3 Zrotation Xrotation Yrotation
			JOINT LeftFoot
			{
				OFFSET	 0.000000	 0.000000	 0.544423
				CHANNELS 3 Zrotation Xrotation Yrotation
				JOINT LeftToeBase
				{
					OFFSET	 0.000000	 0.000000	 0.207117
					CHANNELS 3 Zrotation Xrotation Yrotation
					End Site
					{
						OFFSET	 0.000000	 0.000000	 0.207117
					}
				}
			}
		}
	}
	JOINT RightUpLeg
	{
		OFFSET	-0.124023	-0.008373	-0.065224
		CHANNELS 3 Zrotation Xrotation Yrotation
		JOINT RightLeg
		{
			OFFSET	 0.000000	 0.000000	 0.570047
			CHANNELS 3 Zrotation Xrotation Yrotation
			JOINT RightFoot
			{
				OFFSET	 0.000000	 0.000000	 0.544354
				CHANNELS 3 Zrotation Xrotation Yrotation
				JOINT RightToeBase
				{
					OFFSET	 0.000000	 0.000000	 0.207540
					CHANNELS 3 Zrotation Xrotation Yrotation
					End Site
					{
						OFFSET	 0.000000	 0.000000	 0.207540
					}
				}
			}
		}
	}
	JOINT Spine
	{
		OFFSET	 0.000184	-0.007763	 0.117403
		CHANNELS 3 Zrotation Xrotation Yrotation
		JOINT Spine1
		{
			OFFSET	 0.000000	 0.000000	 0.137269
			CHANNELS 3 Zrotation Xrotation Yrotation
			JOINT Spine2
			{
				OFFSET	 0.000000	 0.000000	 0.156879
				CHANNELS 3 Zrotation Xrotation Yrotation
				JOINT LeftShoulder
				{
					OFFSET	 0.080501	-0.002496	 0.160144
					CHANNELS 3 Zrotation Xrotation Yrotation
					JOINT LeftArm
					{
						OFFSET	 0.000000	 0.000000	 0.164363
						CHANNELS 3 Zrotation Xrotation Yrotation
						JOINT LeftForeArm
						{
							OFFSET	 0.000000	 0.000000	 0.364576
							CHANNELS 3 Zrotation Xrotation Yrotation
							JOINT LeftHand
							{
								OFFSET	 0.000000	 0.000000	 0.360812
								CHANNELS 3 Zrotation Xrotation Yrotation
								JOINT LeftHandIndex1
								{
									OFFSET	 0.000000	 0.000000	 0.086006
									CHANNELS 3 Zrotation Xrotation Yrotation
									JOINT LeftHandIndex2
									{
										OFFSET	 0.000000	 0.000000	 0.047236
										CHANNELS 3 Zrotation Xrotation Yrotation
										JOINT LeftHandIndex3
										{
											OFFSET	-0.004284	-0.000551	 0.038166
											CHANNELS 3 Zrotation Xrotation Yrotation
											End Site
											{
												OFFSET	-0.004284	-0.000551	 0.038166
											}
										}
									}
								}
							}
						}
					}
				}
				JOINT Neck
				{
					OFFSET	 0.000000	 0.000000	 0.176489
					CHANNELS 3 Zrotation Xrotation Yrotation
					JOINT Head
					{
						OFFSET	 0.000000	-0.001747	 0.077940
						CHANNELS 3 Zrotation Xrotation Yrotation
						End Site
						{
							OFFSET	 0.000000	-0.001747	 0.077940
						}
					}
				}
				JOINT RightShoulder
				{
					OFFSET	-0.080363	 0.000306	 0.159706
					CHANNELS 3 Zrotation Xrotation Yrotation
					JOINT RightArm
					{
						OFFSET	 0.000000	 0.000000	 0.164196
						CHANNELS 3 Zrotation Xrotation Yrotation
						JOINT RightForeArm
						{
							OFFSET	 0.000000	 0.000000	 0.365611
							CHANNELS 3 Zrotation Xrotation Yrotation
							JOINT RightHand
							{
								OFFSET	 0.000000	 0.000000	 0.360648
								CHANNELS 3 Zrotation Xrotation Yrotation
								JOINT RightHandIndex1
								{
									OFFSET	 0.000000	 0.000000	 0.069977
									CHANNELS 3 Zrotation Xrotation Yrotation
									JOINT RightHandIndex2
									{
										OFFSET	 0.000000	 0.000000	 0.052305
										CHANNELS 3 Zrotation Xrotation Yrotation
										JOINT RightHandIndex3
										{
											OFFSET	 0.009002	-0.000782	 0.042196
											CHANNELS 3 Zrotation Xrotation Yrotation
											End Site
											{
												OFFSET	 0.009002	-0.000782	 0.042196
											}
										}
									}
								}
							}
						}
					}
				}
			}
		}
	}
}
MOTION
Frames:    8
Frame Time: 0.03333334
 0.000001	 0.017701	 1.298551	-0.003285	 0.007917	 0.064098	-17.657530	-1.965770	-179.261400	 1.464757	-12.620240	-0.738015	-3.163108	 66.557880	-3.329893	-2.385833	 28.452760	 0.000004	 17.538390	-2.263570	 179.231500	-1.450482	-12.701540	 0.729272	 3.133624	 66.406550	 3.191665	 2.384658	 28.388730	 0.000004	-1.263504	 2.705087	 0.170459	-0.622348	 3.692692	-0.289862	 1.913787	-4.699812	 0.441013	-91.776110	 78.527490	 179.999900	 61.345100	 42.555580	-43.216870	-7.427809	 5.776746	-14.619870	-30.681710	-12.092790	-4.559201	-2.635965	 4.993658	 6.788941	-5.165319	 0.784187	 3.516649	-5.225038	 0.466231	 0.424329	-0.000002	-3.783157	-0.089647	 1.859336	 5.018314	-0.081499	 89.782140	 78.203900	 180.000000	 3.800240	 13.223960	 100.599300	-34.354660	-0.164515	 0.486420	 3.163154	-12.792770	-6.067631	 6.112037	 4.509576	-0.364401	 4.968462	 1.518543	-9.347576	 5.168945	 0.703820	 2.021906
-0.000010	 0.017594	 1.300415	-0.003285	 0.007917	 0.064098	-17.647190	-1.965725	-179.262200	 1.464759	-12.620230	-0.738016	-3.192907	 66.262020	-3.293579	-2.385833	 28.452760	 0.000004	 17.528100	-2.263490	 179.232200	-1.450480	-12.701470	 0.729268	 3.161452	 66.110630	 3.157252	 2.384658	 28.388730	 0.000004	-1.263504	 2.705087	 0.170459	-0.622348	 3.692695	-0.289855	 1.913790	-4.699818	 0.441008	-91.776150	 78.527430	 180.000000	 61.395430	 42.516430	-43.239650	-7.425889	 5.784168	-14.639250	-30.536320	-10.304850	-4.499796	-2.635965	 4.993658	 6.788941	-5.165319	 0.784187	 3.516649	-5.225038	 0.466231	 0.424329	-0.000002	-3.783157	-0.089647	 1.859337	 5.018313	-0.081499	 89.782140	 78.203900	 180.000000	 3.809484	 13.470610	 100.653100	-34.527610	-0.165911	 0.485905	 3.370128	-11.135740	-6.131259	 6.112037	 4.509576	-0.364401	 4.968462	 1.518543	-9.347576	 5.168945	 0.703820	 2.021906
-0.000021	 0.017495	 1.302074	-0.003285	 0.007917	 0.064098	-17.637710	-1.965754	-179.262900	 1.464753	-12.620350	-0.738024	-3.218404	 65.998300	-3.262035	-2.385833	 28.452760	 0.000004	 17.518770	-2.263535	 179.232800	-1.450479	-12.701650	 0.729281	 3.185401	 65.846890	 3.127296	 2.384658	 28.388730	 0.000004	-1.263505	 2.705087	 0.170459	-0.622349	 3.692710	-0.289846	 1.913782	-4.699829	 0.441002	-91.776120	 78.527450	 179.999900	 61.485340	 42.472030	-43.312660	-7.424846	 5.787683	-14.648430	-30.382850	-8.291445	-4.440261	-2.635965	 4.993658	 6.788941	-5.165319	 0.784187	 3.516649	-5.225038	 0.466231	 0.424329	-0.000002	-3.783157	-0.089647	 1.859338	 5.018313	-0.081499	 89.782130	 78.203890	 180.000000	 3.812463	 13.699930	 100.704200	-34.692830	-0.166688	 0.483323	 3.394293	-9.102307	-6.175252	 6.112037	 4.509576	-0.364401	 4.968462	 1.518543	-9.347576	 5.168945	 0.703820	 2.021906
-0.000021	 0.017370	 1.303937	-0.003285	 0.007917	 0.064098	-17.626720	-1.965655	-179.263700	 1.464757	-12.620240	-0.738017	-3.246295	 65.697760	-3.227076	-2.385833	 28.452760	 0.000004	 17.507900	-2.263382	 179.233600	-1.450480	-12.701440	 0.729268	 3.211484	 65.546250	 3.094137	 2.384658	 28.388730	 0.000004	-1.263505	 2.705087	 0.170459	-0.622349	 3.692690	-0.289860	 1.913787	-4.699811	 0.441010	-91.776160	 78.527430	 180.000000	 61.648090	 42.432420	-43.482180	-7.424358	 5.789438	-14.653000	-30.184450	-5.559898	-4.370776	-2.635965	 4.993658	 6.788941	-5.165319	 0.784187	 3.516649	-5.225038	 0.466231	 0.424329	-0.000002	-3.783157	-0.089647	 1.859337	 5.018313	-0.081499	 89.782160	 78.203900	 179.999900	 3.694738	 14.016480	 100.724700	-34.643550	-0.166216	 0.483462	 2.664943	-6.104356	-6.178217	 6.112037	 4.509576	-0.364401	 4.968462	 1.518543	-9.347576	 5.168945	 0.703820	 2.021906
 0.000015	 0.017209	 1.305597	-0.003274	 0.007917	 0.064090	-17.615620	-1.965675	-179.264500	 1.464755	-12.620360	-0.738022	-3.272754	 65.400670	-3.193406	-2.385833	 28.452760	 0.000004	 17.496920	-2.263328	 179.234400	-1.450480	-12.701430	 0.729266	 3.236215	 65.249070	 3.062213	 2.384658	 28.388730	 0.000004	-1.263510	 2.705086	 0.170463	-0.622354	 3.692688	-0.289858	 1.913785	-4.699810	 0.441010	-91.776120	 78.527430	 179.999900	 61.896290	 42.429450	-43.792850	-7.425375	 5.785821	-14.643540	-29.971270	-2.513170	-4.308359	-2.635965	 4.993658	 6.788941	-5.165319	 0.784187	 3.516649	-5.225038	 0.466231	 0.424329	-0.000002	-3.783157	-0.089647	 1.859336	 5.018314	-0.081499	 89.782090	 78.203890	 180.000000	 3.606004	 14.982030	 100.741200	-33.719140	-0.158546	 0.486600	 2.148338	-3.126014	-6.131661	 6.112037	 4.509576	-0.364401	 4.968462	 1.518543	-9.347576	 5.168945	 0.703820	 2.021906
 0.000054	 0.017052	 1.307455	-0.003284	 0.007914	 0.064092	-17.603840	-1.965679	-179.265400	 1.464752	-12.620460	-0.738031	-3.298967	 65.092830	-3.159476	-2.385833	 28.452760	 0.000004	 17.485260	-2.263337	 179.235200	-1.450477	-12.701560	 0.729272	 3.260657	 64.941180	 3.030024	 2.384658	 28.388730	 0.000004	-1.263505	 2.705086	 0.170462	-0.622351	 3.692702	-0.289860	 1.913787	-4.699824	 0.441009	-91.776190	 78.527430	 180.000000	 62.264100	 42.477720	-44.303500	-7.429043	 5.771981	-14.607510	-29.743550	 0.767319	-4.259415	-2.635965	 4.993658	 6.788941	-5.165319	 0.784187	 3.516649	-5.225038	 0.466231	 0.424329	-0.000002	-3.783157	-0.089647	 1.859337	 5.018313	-0.081499	 89.782120	 78.203900	 180.000000	 2.081141	 16.671000	 100.567100	-31.755010	-0.141681	 0.491504	 3.001719	-0.616230	-6.056978	 6.112037	 4.509576	-0.364401	 4.968462	 1.518543	-9.347576	 5.168945	 0.703820	 2.021906
 0.000034	 0.016999	 1.309631	-0.003284	 0.007915	 0.064100	-17.593690	-1.965522	-179.266100	 1.464752	-12.620220	-0.738016	-3.320275	 64.831590	-3.131468	-2.385833	 28.452760	 0.000004	 17.475180	-2.263249	 179.235800	-1.450483	-12.701460	 0.729266	 3.280522	 64.680010	 3.003431	 2.384658	 28.388730	 0.000004	-1.263505	 2.705087	 0.170457	-0.622349	 3.692714	-0.289857	 1.913779	-4.699828	 0.441011	-91.776130	 78.527430	 179.999900	 62.683160	 42.564740	-44.928630	-7.436848	 5.741793	-14.528920	-29.555170	 3.354786	-4.235410	-2.635965	 4.993658	 6.788941	-5.165319	 0.784187	 3.516649	-5.225038	 0.466231	 0.424329	-0.000002	-3.783157	-0.089647	 1.859336	 5.018314	-0.081499	 89.782170	 78.203920	 179.999900	-2.264475	 18.704000	 100.080300	-29.519990	-0.122905	 0.498312	 4.900464	 0.881303	-5.872163	 6.112037	 4.509576	-0.364401	 4.968462	 1.518543	-9.347576	 5.168945	 0.703820	 2.021906
 0.000010	 0.016949	 1.312210	-0.003284	 0.007914	 0.064092	-17.582220	-1.965600	-179.267000	 1.464756	-12.620460	-0.738031	-3.342712	 64.544680	-3.101385	-2.385833	 28.452760	 0.000004	 17.463900	-2.263249	 179.236600	-1.450481	-12.701560	 0.729273	 3.301466	 64.392960	 2.974902	 2.384658	 28.388730	 0.000004	-1.263505	 2.705086	 0.170462	-0.622350	 3.692702	-0.289860	 1.913786	-4.699824	 0.441009	-91.776200	 78.527470	-180.000000	 63.273940	 42.717330	-45.834980	-7.448973	 5.695259	-14.407790	-29.378610	 5.553513	-4.229882	-2.635965	 4.993658	 6.788941	-5.165319	 0.784187	 3.516649	-5.225038	 0.466231	 0.424329	-0.000002	-3.783157	-0.089647	 1.859337	 5.018313	-0.081499	 89.782090	 78.203900	-180.000000	-9.184587	 21.938620	 98.521870	-26.811930	-0.099039	 0.502785	 7.781647	 1.668413	-5.425264	 6.112037	 4.509576	-0.364401	 4.968462	 1.518543	-9.347576	 5.168945	 0.703820	 2.021906
